<?xml version="1.0" encoding="utf-8"?>
<!-- Generator: Adobe Illustrator 24.1.2, SVG Export Plug-In . SVG Version: 6.00 Build 0)  -->
<svg version="1.1" id="Layer_1" xmlns="http://www.w3.org/2000/svg" xmlns:xlink="http://www.w3.org/1999/xlink" x="0px" y="0px"
	 viewBox="0 0 240.94 240.94" style="enable-background:new 0 0 240.94 240.94;" xml:space="preserve">
<style type="text/css">
	.st0{fill-rule:evenodd;clip-rule:evenodd;fill:#F37124;}
	.st1{fill-rule:evenodd;clip-rule:evenodd;fill:#4DB748;}
	.st2{fill-rule:evenodd;clip-rule:evenodd;fill:#2E3192;}
	.st3{fill-rule:evenodd;clip-rule:evenodd;fill:#FFFFFF;}
	.st4{fill-rule:evenodd;clip-rule:evenodd;fill:#0E4EA0;}
	.st5{fill:#0E4EA0;}
</style>
<g>
	<path class="st0" d="M206.51,68.26l-11.19,41.28c0,0-3.47,19.84-22.76,19.52c-19.28,0.32-32.01,0-32.01,0l10.41-40.64
		c0,0,3.47-18.56,23.15-20.16C188.38,68.58,206.51,68.26,206.51,68.26L206.51,68.26z"/>
	<path class="st1" d="M94.26,68.26l-11.19,41.28c0,0-3.47,19.84-22.76,19.52c-19.29,0.32-32.02,0-32.02,0l10.41-40.64
		c0,0,3.47-18.56,23.15-20.16C76.13,68.58,94.26,68.26,94.26,68.26L94.26,68.26z"/>
	<g>
		<path class="st2" d="M154.57,53.29l-17.36,63.15c0,0-4.5,27.52-24.3,27.98c-19.29,0.48-32.02,0-32.02,0l16.59-66.03
			c0,0,4.24-25.1,24.69-25.1C136.82,53.05,154.57,53.29,154.57,53.29L154.57,53.29z"/>
	</g>
	<path class="st3" d="M83.46,83.54L57.42,83.3c0,0-10.32-1.04-12.34,7.76c-2.03,8.8-6.17,23.04-6.17,23.04s6.46,0.64,9.36-4.8
		c1.16-3.92,2.22-7.68,2.22-7.68l14.27,0.08c0,0,7.42-0.24,9.45-6.88c-0.1,0.08-21.7-0.16-21.7-0.16l1.16-4.48H74.1
		C74.1,90.18,81.82,89.94,83.46,83.54L83.46,83.54z"/>
	<path class="st4" d="M204.24,118.78c4.65,0,8.42,3.77,8.42,8.42s-3.77,8.42-8.42,8.42c-4.65,0-8.42-3.77-8.42-8.42
		S199.58,118.78,204.24,118.78L204.24,118.78z M204.24,119.98c3.99,0,7.22,3.23,7.22,7.21c0,3.99-3.23,7.22-7.22,7.22
		s-7.22-3.23-7.22-7.22C197.02,123.21,200.25,119.98,204.24,119.98L204.24,119.98z"/>
	<path class="st5" d="M200.96,131.44v-8.49h3.76c0.76,0,1.34,0.08,1.73,0.23c0.39,0.15,0.71,0.42,0.94,0.81
		c0.23,0.39,0.35,0.82,0.35,1.28c0,0.6-0.19,1.11-0.59,1.52c-0.39,0.41-0.99,0.67-1.8,0.79c0.3,0.14,0.52,0.28,0.68,0.42
		c0.33,0.3,0.64,0.68,0.93,1.13l1.48,2.31h-1.41l-1.12-1.77c-0.33-0.51-0.6-0.9-0.81-1.17c-0.21-0.27-0.4-0.46-0.57-0.57
		c-0.17-0.11-0.34-0.18-0.51-0.23c-0.13-0.02-0.33-0.04-0.63-0.04h-1.3v3.77H200.96L200.96,131.44z M202.08,126.7h2.41
		c0.51,0,0.92-0.06,1.2-0.16c0.29-0.11,0.51-0.28,0.66-0.51c0.15-0.24,0.23-0.49,0.23-0.76c0-0.4-0.14-0.73-0.44-0.99
		c-0.29-0.26-0.75-0.39-1.38-0.39h-2.69V126.7L202.08,126.7z"/>
	<g>
		<path class="st3" d="M139.49,83.47l-26.04-0.24c0,0-10.32-1.04-12.34,7.76c-2.03,8.8-6.17,23.04-6.17,23.04s6.46,0.64,9.36-4.8
			c1.16-3.92,2.22-7.68,2.22-7.68s2.54,0,14.27,0.08c11.74,0.08,7.42-0.24,9.45-6.88c-0.1,0.08-21.7-0.16-21.7-0.16l1.16-4.48h20.44
			C130.14,90.11,137.85,89.87,139.49,83.47L139.49,83.47z"/>
		<path class="st3" d="M125.89,102.87l-1.16,4.48h-20.44c0,0-7.72,0.24-9.36,6.64l0,0l26.04,0.24c0,0,10.32,1.04,12.34-7.76
			c2.03-8.8,6.17-23.04,6.17-23.04s-6.46-0.64-9.36,4.8c-1.16,3.92-2.22,7.68-2.22,7.68L125.89,102.87z"/>
	</g>
	<g>
		<path class="st3" d="M195.81,83.58l-26.04-0.24c0,0-10.32-1.04-12.34,7.76c-2.03,8.8-6.17,23.04-6.17,23.04s6.46,0.64,9.36-4.8
			c1.16-3.92,2.22-7.68,2.22-7.68s2.54,0,14.27,0.08c11.74,0.08,7.42-0.24,9.45-6.88c-0.1,0.08-21.7-0.16-21.7-0.16l1.16-4.48h20.44
			C186.45,90.21,194.17,89.98,195.81,83.58L195.81,83.58z"/>
		<path class="st3" d="M182.21,102.98l-1.16,4.48h-20.44c0,0-7.72,0.24-9.36,6.64l0,0l26.04,0.24c0,0,10.32,1.04,12.34-7.76
			c2.03-8.8,6.17-23.04,6.17-23.04s-6.46-0.64-9.36,4.8c-1.16,3.92-2.22,7.68-2.22,7.68L182.21,102.98z"/>
	</g>
	<path class="st3" d="M130.36,104.58"/>
</g>
</svg>
